<?xml version="1.0" standalone="no"?>
<!DOCTYPE svg PUBLIC "-//W3C//DTD SVG 20010904//EN"
 "http://www.w3.org/TR/2001/REC-SVG-20010904/DTD/svg10.dtd">
<svg version="1.0" xmlns="http://www.w3.org/2000/svg"
 width="500.000000pt" height="284.000000pt" viewBox="0 0 500.000000 284.000000"
 preserveAspectRatio="xMidYMid meet">

<g transform="translate(0.000000,284.000000) scale(0.100000,-0.100000)"
fill="#000000" stroke="none">
<path d="M2857 2813 c18 -2 50 -2 70 0 21 2 7 4 -32 4 -38 0 -55 -2 -38 -4z"/>
<path d="M3033 2803 c9 -2 25 -2 35 0 9 3 1 5 -18 5 -19 0 -27 -2 -17 -5z"/>
<path d="M1390 2718 c-14 -5 -49 -11 -78 -13 -54 -3 -86 -15 -42 -15 18 0 21
-3 13 -11 -8 -8 -20 -9 -42 -1 -38 13 -42 6 -5 -9 42 -15 23 -20 -44 -11 -47
7 -69 5 -94 -6 -18 -8 -42 -17 -53 -19 -11 -2 -38 -21 -60 -43 -22 -22 -53
-50 -70 -64 l-29 -24 37 -56 c58 -87 49 -95 -49 -43 l-62 34 -57 -57 -57 -57
30 -11 c17 -6 33 -8 36 -5 8 9 96 -7 96 -18 0 -5 -9 -9 -20 -9 -12 0 -55 -13
-98 -29 -42 -16 -97 -35 -122 -41 -72 -19 -90 -31 -90 -58 0 -41 -22 -152 -29
-148 -10 7 -37 -18 -36 -34 0 -8 8 -14 18 -14 10 1 17 -5 17 -17 0 -17 -2 -17
-37 -3 -28 12 -35 13 -26 2 5 -7 18 -39 28 -71 16 -50 16 -60 4 -68 -10 -6
-10 -9 -1 -9 13 0 17 -46 6 -74 -5 -13 -24 -4 -95 46 -49 34 -89 64 -89 68 0
6 53 5 133 -4 26 -2 27 -1 21 28 -11 51 -25 76 -18 34 7 -44 -12 -53 -35 -17
-11 18 -11 23 1 30 9 6 5 9 -12 9 -15 0 -31 5 -37 11 -8 8 -21 -2 -48 -39 -20
-28 -39 -52 -43 -54 -8 -4 -94 -106 -107 -127 -6 -11 -3 -13 15 -8 17 4 37 -5
79 -38 31 -23 63 -51 71 -60 14 -16 13 -17 -8 -10 -46 14 -19 -27 48 -76 46
-33 75 -48 100 -49 19 -1 44 -5 55 -10 15 -6 8 -9 -27 -9 -41 -1 -48 -4 -49
-21 -1 -11 -2 -26 -3 -32 -1 -7 -12 -15 -25 -18 -14 -3 -23 -9 -20 -15 2 -5
10 -9 17 -7 7 2 12 -1 11 -5 -1 -4 1 -15 4 -23 3 -8 7 -24 9 -34 2 -16 21 -24
103 -42 121 -28 190 -44 360 -83 158 -36 338 -77 385 -86 25 -5 64 -34 139
-104 223 -208 228 -211 274 -211 l42 -1 -30 -13 c-40 -18 -33 -20 170 -46 94
-12 176 -27 183 -33 9 -7 12 -22 8 -39 -7 -36 23 -58 81 -58 l43 0 0 -40 c0
-22 -2 -40 -4 -40 -2 0 -37 16 -77 35 -70 33 -93 36 -87 10 3 -12 142 -167
231 -256 48 -48 77 -55 77 -19 0 11 5 22 10 25 6 4 10 -5 10 -19 0 -17 6 -26
16 -26 8 0 13 -4 10 -9 -4 -5 18 -17 46 -27 29 -9 59 -19 67 -22 10 -4 12 -1
6 7 -5 10 -2 11 14 6 19 -6 127 22 119 31 -4 3 -41 11 -61 13 -5 1 -6 5 -3 10
3 5 21 7 40 5 29 -2 41 4 76 37 39 38 62 47 44 17 -17 -27 -12 -42 6 -18 10
13 16 29 13 34 -3 5 -2 6 4 3 6 -4 21 5 34 20 13 14 17 23 9 18 -8 -4 3 11 25
34 21 22 45 40 51 38 7 -1 13 3 14 8 1 14 62 75 70 70 3 -2 7 5 7 16 1 13 -6
21 -25 25 -15 3 -36 9 -47 14 -19 8 -19 9 3 9 44 2 62 19 62 60 0 42 13 51 78
51 18 0 78 8 134 17 82 13 98 19 84 28 -25 19 -19 25 21 25 56 0 111 29 122
65 5 17 10 24 10 16 1 -11 4 -11 16 -1 8 7 15 8 15 3 0 -5 17 -7 38 -5 37 5
132 74 152 112 9 17 -9 90 -23 90 -5 0 -5 5 -2 10 3 6 28 10 55 10 40 0 50 -4
55 -21 7 -20 7 -20 38 4 18 14 32 30 32 37 0 12 175 93 184 85 2 -3 -3 -13
-12 -23 -33 -37 -31 -36 163 16 190 51 504 126 518 124 16 -4 15 4 -9 128 -11
58 -22 119 -24 135 -2 17 -20 122 -40 235 -20 113 -40 230 -45 260 -6 30 -14
71 -20 90 -17 59 -13 66 20 35 17 -16 30 -26 30 -23 0 5 -257 232 -310 273
-19 15 -22 15 -11 2 12 -15 10 -19 -23 -32 -34 -14 -39 -14 -84 9 -33 17 -53
22 -63 15 -8 -5 -9 -9 -4 -9 6 0 35 -16 65 -36 53 -35 57 -36 105 -26 l50 10
57 -56 c32 -31 56 -57 55 -58 -1 -2 -34 7 -73 18 l-70 21 -73 -57 c-40 -31
-74 -56 -76 -56 -2 0 5 36 14 80 18 80 16 90 -19 90 -4 0 -18 -55 -30 -122
-13 -68 -27 -129 -33 -135 -13 -18 -27 -16 -27 3 0 8 4 12 10 9 6 -4 8 7 5 27
-5 27 -4 30 5 13 9 -18 10 -18 6 4 -7 36 15 173 31 192 13 15 3 20 -94 51
l-108 35 -12 -21 -12 -21 -1 23 c0 14 -9 27 -26 34 -21 10 -25 17 -21 42 l5
31 -11 -28 c-9 -21 -16 -27 -32 -23 -11 3 -29 8 -40 11 -13 4 -47 -11 -100
-44 -44 -27 -82 -48 -85 -45 -2 3 1 8 7 12 6 4 15 20 19 36 6 24 4 27 -11 24
-16 -3 -52 -79 -54 -115 -1 -6 31 6 69 27 39 21 70 36 70 34 0 -2 11 3 25 12
14 9 28 14 31 11 3 -3 -14 -18 -38 -34 -74 -50 -122 -77 -114 -65 10 17 -6 15
-30 -3 -10 -8 -22 -15 -26 -15 -14 0 -9 38 12 89 23 59 17 66 -45 57 l-43 -7
-42 -122 c-40 -114 -60 -157 -60 -130 0 6 18 62 40 123 22 61 40 116 40 121 0
6 -28 7 -67 4 -96 -8 -133 -15 -132 -23 3 -19 -2 -33 -10 -27 -6 3 -8 -6 -5
-21 3 -14 1 -23 -4 -20 -5 3 -7 -6 -4 -21 4 -19 2 -24 -8 -18 -8 5 -11 4 -6
-3 7 -12 -3 -62 -13 -62 -3 0 -15 38 -25 85 l-19 85 -48 0 c-26 0 -81 -4 -121
-10 -183 -24 -381 -29 -598 -15 -118 8 -245 17 -281 21 l-66 6 -21 -107 -20
-107 24 -54 24 -54 -157 -76 c-153 -74 -157 -76 -184 -60 -38 22 -42 20 -24
-14 15 -29 13 -37 -51 -224 l-66 -195 43 -78 c23 -43 44 -80 45 -82 2 -2 15 4
30 14 14 9 30 13 34 8 15 -15 100 -205 90 -201 -5 2 -68 56 -140 122 -72 65
-132 117 -134 115 -2 -2 -18 -44 -36 -94 -63 -179 -82 -225 -92 -231 -6 -4 -8
-2 -5 3 7 12 -31 48 -140 130 -40 31 -70 60 -66 66 3 5 1 7 -4 4 -6 -4 -19 3
-29 15 -11 12 -14 18 -8 15 7 -4 14 3 16 17 3 17 -4 33 -24 55 -16 17 -33 31
-38 31 -16 0 -20 -18 -5 -24 16 -6 21 -36 7 -36 -5 0 -24 17 -44 38 -19 20
-59 50 -88 66 -51 27 -53 29 -35 43 11 7 31 17 45 20 14 3 51 23 82 44 32 22
60 39 63 39 3 0 68 34 146 76 l140 76 -7 31 c-15 71 -36 103 -169 267 -77 94
-141 175 -143 179 -1 4 19 18 45 32 27 13 51 28 54 32 3 5 8 8 10 7 2 -1 12 2
22 6 15 5 18 14 13 35 -6 31 11 50 25 28 5 -8 8 -30 6 -49 -3 -22 6 -61 23
-105 15 -38 40 -121 55 -184 17 -70 31 -108 36 -100 4 8 17 66 29 129 12 63
31 154 42 202 l20 87 70 -142 c38 -78 71 -143 71 -143 1 -1 36 4 77 12 95 17
172 18 189 2 18 -18 8 2 -97 190 -81 144 -87 152 -116 152 -17 1 -77 5 -133 9
-98 8 -105 11 -192 61 -50 28 -91 55 -91 59 0 4 16 5 36 3 24 -3 39 0 45 9 10
16 -11 27 -52 28 -24 1 -39 17 -39 42 0 16 50 10 88 -11 20 -11 57 -25 81 -31
23 -6 41 -12 39 -14 -2 -3 -18 -1 -35 4 -37 11 -67 -3 -32 -15 31 -10 61 -10
77 0 7 4 18 3 25 -2 7 -5 73 -7 156 -4 128 4 141 6 115 18 -38 17 -23 16 56
-1 44 -10 125 -14 250 -14 l185 1 -185 44 c-201 48 -295 63 -270 44 12 -8 8
-9 -15 -4 -60 14 -81 22 -61 23 37 2 7 14 -81 32 -101 21 -118 22 -153 7z m30
-98 c0 -5 -2 -10 -4 -10 -3 0 -8 5 -11 10 -3 6 -1 10 4 10 6 0 11 -4 11 -10z
m199 -6 c11 -11 -7 -10 -34 3 l-30 14 30 -6 c16 -4 32 -9 34 -11z m-492 -34
l21 -17 -27 -16 c-27 -16 -29 -15 -50 7 -31 32 -21 72 12 55 12 -7 32 -20 44
-29z m-168 -140 c0 -9 -4 -8 -9 5 -5 11 -9 27 -9 35 0 9 4 8 9 -5 5 -11 9 -27
9 -35z m56 -50 c-4 -6 6 -10 22 -11 15 0 37 -4 48 -8 16 -6 11 -11 -30 -24
-26 -9 -55 -23 -64 -31 -9 -8 -22 -16 -30 -18 -8 -2 -29 -23 -46 -47 -35 -50
-45 -53 -62 -20 -10 20 -9 27 9 46 12 13 46 31 75 40 46 14 53 20 49 37 -3 12
2 25 12 32 21 16 25 17 17 4z m3265 -37 c0 -8 -38 17 -51 33 -9 11 -2 9 19 -6
17 -13 32 -25 32 -27z m-2054 -43 c3 0 2 5 -1 10 -10 16 1 11 16 -7 12 -14 12
-16 0 -8 -10 5 -12 4 -7 -4 6 -9 11 -9 22 0 11 9 14 8 14 -2 0 -11 2 -11 10 1
5 8 10 10 10 4 0 -7 7 -15 16 -18 15 -6 15 -4 3 11 -12 16 -12 17 2 6 9 -7 18
-10 21 -7 3 3 9 0 14 -7 4 -7 3 -10 -3 -6 -6 4 -13 1 -16 -6 -6 -15 -125 -80
-185 -101 -41 -15 -48 -9 -27 24 5 8 8 23 6 34 -2 12 1 16 9 11 9 -6 9 -2 0
15 -8 15 -8 20 -1 16 6 -4 11 -2 11 4 0 6 4 8 10 5 5 -3 20 1 32 9 12 9 18 16
12 16 -5 0 -15 -5 -21 -11 -8 -8 -16 -8 -30 0 -14 8 -15 11 -3 12 8 1 21 1 29
0 7 -2 10 2 6 8 -4 8 2 8 20 1 15 -6 29 -10 31 -10z m1454 -192 c46 -190 47
-194 33 -252 -7 -33 -16 -63 -19 -66 -3 -3 -54 20 -114 51 l-108 57 -27 -92
c-15 -50 -34 -102 -41 -116 -14 -24 -14 -23 -8 15 4 22 20 78 36 124 18 56 24
87 17 91 -6 4 0 13 14 23 17 11 39 54 76 149 77 197 85 217 90 213 2 -3 25
-91 51 -197z m-2698 5 c1 -26 -1 -50 -7 -53 -6 -3 -11 26 -12 75 -2 86 12 69
19 -22z m2109 30 c-12 -20 -14 -14 -5 12 4 9 9 14 11 11 3 -2 0 -13 -6 -23z
m1089 23 c0 -2 -8 -10 -17 -17 -16 -13 -17 -12 -4 4 13 16 21 21 21 13z
m-1890 -53 c-11 -17 -11 -17 -6 0 3 10 6 24 7 30 0 9 2 9 5 0 3 -7 0 -20 -6
-30z m1655 -117 c-19 -65 -35 -122 -35 -129 0 -6 39 27 88 74 105 103 192 175
192 159 0 -6 -30 -40 -67 -74 -87 -81 -233 -199 -233 -189 0 31 61 277 72 290
25 31 20 -10 -17 -131z m170 114 c-16 -16 -31 -27 -34 -24 -5 4 48 53 58 54 3
0 -8 -13 -24 -30z m-1825 -45 c0 -14 -2 -25 -4 -25 -2 0 -6 11 -8 25 -3 14 -1
25 3 25 5 0 9 -11 9 -25z m780 -51 c-7 -19 -15 -33 -18 -30 -3 3 1 25 8 47 8
23 16 37 18 30 2 -6 -2 -27 -8 -47z m77 29 c-2 -10 -8 -27 -14 -38 -6 -11 -30
-78 -53 -150 -24 -71 -45 -124 -48 -117 -5 16 99 322 110 322 4 0 7 -8 5 -17z
m259 -48 c-37 -33 -76 -46 -76 -26 0 12 49 43 59 37 4 -3 17 1 27 9 35 27 29
14 -10 -20z m-174 3 c-7 -7 -12 -8 -12 -2 0 14 12 26 19 19 2 -3 -1 -11 -7
-17z m-2672 -2 c0 -21 -42 -48 -54 -36 -6 6 0 17 15 29 29 24 39 26 39 7z
m1447 -25 c11 -17 9 -21 -18 -30 -25 -9 -35 -7 -55 7 -32 23 -30 30 9 35 17 2
37 5 42 5 6 1 16 -7 22 -17z m940 11 c9 -6 6 -18 -14 -45 -32 -45 -41 -40 -23
13 14 42 17 45 37 32z m1143 -26 c0 -2 -45 -45 -101 -97 -62 -57 -100 -85 -98
-74 2 11 47 54 99 97 95 77 100 81 100 74z m-3226 -186 c80 -69 146 -128 146
-132 0 -3 -28 5 -61 18 -72 29 -85 27 -28 -5 22 -13 38 -25 36 -27 -8 -9 -167
47 -162 57 4 5 0 9 -7 9 -10 0 -10 2 1 9 9 6 0 14 -34 27 -41 15 -132 94 -143
124 -2 4 12 13 31 19 21 7 37 20 40 33 5 18 8 19 20 7 8 -8 80 -70 161 -139z
m3506 111 c0 -5 -26 -33 -57 -63 -50 -46 -73 -60 -163 -92 -58 -21 -112 -43
-120 -49 -29 -20 25 32 140 136 l114 104 43 -14 c24 -8 43 -18 43 -22z m-1480
-152 c-33 -94 -67 -183 -75 -197 -27 -49 -66 -153 -60 -161 3 -5 -2 -26 -11
-46 -8 -20 -14 -39 -12 -41 3 -2 61 58 130 134 70 75 143 153 164 172 l37 35
-24 -35 c-13 -19 -64 -78 -113 -130 -111 -117 -157 -170 -131 -149 11 9 112
94 225 190 113 96 210 178 217 182 13 8 6 -30 -10 -50 -5 -7 -7 -13 -3 -13 3
0 -1 -17 -9 -37 -9 -21 -27 -72 -41 -113 -25 -74 -103 -234 -111 -227 -2 2 6
26 18 53 11 27 43 111 69 188 27 76 57 148 67 160 10 11 -1 5 -24 -14 -23 -19
-42 -39 -42 -44 -1 -5 -19 -45 -41 -90 -22 -44 -71 -171 -110 -280 -39 -110
-73 -202 -75 -205 -12 -12 0 30 66 220 38 112 75 222 80 244 6 22 22 53 37 69
26 28 -64 -47 -172 -144 -213 -191 -314 -272 -243 -193 35 39 11 36 -27 -3
l-37 -38 20 46 c10 25 24 54 30 64 6 11 52 133 102 273 49 140 95 264 101 275
10 19 58 76 65 76 1 0 -25 -77 -57 -171z m-1254 124 c-7 -7 -26 7 -26 19 0 6
6 6 15 -2 9 -7 13 -15 11 -17z m1845 -96 c-21 -61 -15 -71 27 -41 43 30 21 -2
-48 -71 -38 -38 -72 -66 -75 -63 -9 9 34 109 61 140 13 16 24 33 24 38 0 16
21 63 25 58 3 -3 -4 -30 -14 -61z m-2968 21 c-3 -16 -9 -28 -14 -28 -4 0 -3
14 3 31 12 36 18 35 11 -3z m3849 -1 c-17 -13 -29 -26 -26 -29 3 -3 -18 -25
-45 -49 -28 -23 -49 -44 -47 -46 2 -2 43 1 91 8 47 6 88 9 91 6 3 -2 -30 -25
-73 -49 -100 -58 -201 -78 -258 -51 -19 9 -35 19 -34 22 1 16 236 185 272 197
60 18 65 17 29 -9z m-502 -27 c0 -4 -7 -13 -15 -20 -12 -10 -15 -9 -15 7 0 11
7 20 15 20 8 0 15 -4 15 -7z m-1130 -235 c-107 -295 -142 -331 -46 -46 61 179
108 283 121 269 2 -2 -32 -102 -75 -223z m-935 195 c10 -11 15 -23 12 -27 -4
-3 -7 -1 -7 6 0 9 -9 12 -25 9 -29 -6 -45 10 -24 23 20 12 24 11 44 -11z
m-1505 -15 c33 -19 46 -19 30 0 -19 23 -2 18 70 -18 71 -36 73 -40 57 -132
l-7 -41 60 -13 c33 -7 64 -19 71 -27 8 -10 5 -12 -16 -8 -33 6 -103 33 -132
52 -18 11 -20 18 -12 38 16 45 10 52 -73 96 -45 24 -84 49 -86 56 -5 16 7 15
38 -3z m3560 -40 c-7 -20 -14 -34 -17 -31 -3 2 0 21 7 41 7 20 14 34 17 31 3
-2 0 -21 -7 -41z m70 -30 c-49 -50 -67 -60 -30 -17 31 35 61 62 68 62 3 0 -14
-20 -38 -45z m-3326 -38 c17 -13 70 -45 119 -71 48 -26 85 -51 83 -55 -3 -4
20 -22 50 -39 30 -17 52 -27 48 -21 -10 17 35 -10 86 -50 25 -19 47 -37 49
-38 2 -2 1 -6 -2 -10 -4 -3 -24 6 -44 20 -21 15 -40 22 -41 17 -8 -22 7 -38
40 -44 31 -6 35 -11 61 -87 15 -45 26 -83 24 -85 -8 -8 -117 79 -111 88 4 6 2
8 -3 5 -12 -8 -105 62 -98 74 3 4 0 11 -6 15 -8 4 -9 3 -5 -4 4 -7 2 -12 -3
-12 -15 0 -14 13 2 29 10 11 8 13 -11 8 -12 -3 -20 -2 -17 3 3 4 -7 11 -23 15
-36 8 -112 45 -112 54 0 3 12 14 28 23 26 17 26 17 5 18 -13 0 -23 5 -23 10 0
6 21 10 48 10 47 0 47 1 -48 34 -88 31 -96 35 -116 74 -26 48 -23 51 20 19z
m1308 -69 c56 -68 109 -170 96 -184 -5 -4 -370 36 -377 42 -5 5 203 225 210
222 4 -2 36 -38 71 -80z m2330 -43 c-2 -11 -14 -30 -28 -43 -25 -24 -34 -43
-11 -23 8 6 16 9 18 6 3 -2 23 2 44 10 22 8 51 14 65 14 24 0 23 -1 -15 -36
-40 -36 -125 -80 -220 -113 -27 -10 -79 -30 -115 -44 -40 -16 -59 -21 -50 -12
8 8 76 71 150 140 129 120 169 145 162 101z m-712 11 c0 -14 -111 -137 -190
-211 -52 -49 -124 -116 -159 -149 l-63 -61 65 85 c36 47 105 121 153 165 49
44 112 101 139 127 50 47 55 52 55 44z m60 -31 c16 -18 27 -22 35 -15 9 8 14
3 18 -17 4 -21 0 -32 -16 -45 -31 -24 -34 -23 -39 17 -2 19 0 35 6 35 5 0 1 9
-9 20 -23 25 -34 25 -32 1 0 -11 4 -18 8 -15 4 2 7 -5 6 -16 -1 -11 -20 -39
-43 -61 -38 -38 -42 -39 -39 -18 5 44 56 139 73 139 5 0 19 -11 32 -25z m360
-58 c0 -2 -15 -16 -32 -33 l-33 -29 29 33 c28 30 36 37 36 29z m-127 -30 c-28
-46 -97 -137 -104 -137 -24 0 -3 41 48 92 58 59 70 69 56 45z m-2750 -32 c-7
-21 -12 -19 -10 4 0 11 5 18 9 15 4 -3 5 -11 1 -19z m2807 4 c0 -14 -128 -159
-141 -159 -26 0 -2 42 58 102 68 68 83 78 83 57z m-3090 -104 c47 -21 94 -47
105 -58 14 -13 2 -10 -42 12 -37 18 -69 28 -79 24 -13 -5 -15 -3 -9 7 6 10 4
12 -8 7 -9 -3 -16 -2 -14 3 1 6 -30 25 -69 43 -39 18 -82 40 -95 50 -23 16 7
3 211 -88z m3785 75 c-3 -5 -12 -10 -18 -10 -7 0 -6 4 3 10 19 12 23 12 15 0z
m-875 -29 c0 -4 -19 -15 -42 -24 l-43 -17 33 31 c30 27 52 31 52 10z m-20
-116 c0 -3 -50 -30 -112 -61 -108 -54 -197 -88 -207 -79 -7 8 176 91 317 144
1 1 2 -1 2 -4z m-410 -24 c0 -17 -102 -121 -119 -121 -10 0 8 24 49 64 71 71
70 70 70 57z m-869 -17 c16 -15 16 -19 -3 -75 -17 -50 -23 -59 -44 -59 -13 0
-24 3 -24 7 0 13 44 143 49 143 2 0 12 -7 22 -16z m245 -63 c-38 -38 -77 -72
-87 -74 -11 -3 -19 -4 -19 -2 0 5 164 145 170 145 2 0 -26 -31 -64 -69z m-181
3 c15 -15 14 -19 -11 -45 -39 -40 -45 -36 -27 16 8 25 16 45 18 45 2 0 11 -7
20 -16z m68 -56 c-5 -24 -10 -28 -41 -28 -34 0 -35 0 -17 20 10 11 26 20 37
20 10 0 18 5 18 12 0 6 2 9 4 7 2 -2 2 -16 -1 -31z m237 -63 c0 -42 -32 -113
-67 -151 -14 -15 -27 -41 -29 -58 -2 -17 -6 -40 -8 -51 -2 -11 -5 -23 -5 -27
-1 -12 -31 -9 -31 3 0 5 -3 8 -7 6 -5 -3 -9 16 -11 42 -1 25 -11 80 -21 121
-18 70 -19 72 -21 35 -1 -22 -2 -43 -2 -46 0 -3 -3 -22 -8 -42 -4 -20 -4 -35
0 -32 4 3 7 -14 5 -38 -1 -30 -6 -41 -16 -39 -11 3 -12 1 -1 -9 6 -7 12 -17
12 -22 0 -5 -8 -1 -17 8 -15 16 -18 16 -28 1 -11 -14 -14 -10 -25 28 -11 42
-10 51 30 170 47 142 36 132 168 135 l82 1 0 -35z m-577 -120 c15 1 30 -2 33
-6 2 -4 -4 -6 -16 -4 -11 2 -22 0 -25 -6 -4 -5 -1 -10 4 -10 6 -1 16 -3 21 -4
6 -1 13 -3 17 -4 3 0 -2 -10 -13 -22 -23 -25 -22 -22 -4 -44 13 -15 12 -19 -5
-32 -16 -13 -16 -14 -3 -10 10 3 20 2 23 -3 4 -6 -24 -10 -71 -10 l-77 0 7 50
c4 28 11 60 16 73 9 22 9 22 11 -3 1 -14 1 -29 0 -33 -1 -5 3 -6 9 -2 6 3 8
10 5 15 -3 5 -1 11 5 15 6 4 8 10 5 15 -3 5 -1 11 5 15 6 4 7 12 3 18 -5 9 -3
9 8 1 8 -6 27 -10 42 -9z m907 -10 c11 -13 8 -15 -14 -15 -25 0 -33 10 -19 23
10 11 19 8 33 -8z m-470 -195 c5 0 10 5 12 12 2 6 10 9 17 7 10 -4 6 -14 -13
-36 -14 -17 -26 -36 -26 -41 0 -6 -10 -13 -22 -15 -13 -2 -5 -5 18 -6 34 -1
43 -5 47 -22 6 -21 3 -21 -52 -16 -73 8 -98 17 -79 28 10 7 11 12 0 29 -11 17
-10 20 7 20 11 0 23 5 26 10 4 6 -6 10 -22 10 -22 0 -25 2 -13 10 8 5 30 10
48 10 23 0 32 5 33 18 1 16 2 16 6 0 2 -10 8 -18 13 -18z m-157 -17 c-7 -2
-19 -2 -25 0 -7 3 -2 5 12 5 14 0 19 -2 13 -5z m-128 -24 c-4 -5 -14 -8 -23
-8 -15 1 -15 2 1 6 9 2 14 9 11 15 -4 7 -2 8 5 4 6 -4 9 -12 6 -17z m-61 -31
c-6 -10 -4 -10 7 0 14 13 76 16 103 6 9 -3 16 -12 16 -20 0 -8 8 -14 18 -14
24 -1 -58 -30 -85 -30 -13 0 -23 4 -23 9 0 6 -13 18 -29 27 -17 10 -28 21 -25
26 8 13 26 9 18 -4z m201 -28 c-3 -5 -12 -10 -18 -10 -7 0 -6 4 3 10 19 12 23
12 15 0z m-59 -60 c22 0 17 -16 -6 -17 -15 -1 -20 4 -19 20 0 12 3 16 6 10 2
-7 11 -13 19 -13z m-48 -40 c5 0 16 -18 25 -40 8 -22 14 -40 12 -40 -10 0 -55
24 -56 29 -8 79 -8 94 1 74 5 -13 13 -23 18 -23z m11 -79 c8 -5 15 -19 16 -30
1 -11 -2 -18 -7 -15 -5 4 -7 13 -4 21 4 8 1 11 -5 7 -6 -3 -8 -15 -6 -26 4
-16 3 -17 -9 -7 -7 6 -11 16 -7 23 4 6 -1 5 -10 -3 -14 -11 -17 -11 -17 1 0
14 19 38 30 38 3 0 11 -4 19 -9z"/>
<path d="M870 1301 c0 -6 4 -13 10 -16 6 -3 7 1 4 9 -7 18 -14 21 -14 7z"/>
<path d="M2139 826 c0 -1 -2 -13 -4 -28 -2 -17 3 -32 13 -39 14 -11 15 -11 5
1 -21 23 -15 35 7 15 19 -17 19 -19 3 -39 -15 -17 -15 -19 -1 -8 14 11 18 10
27 -5 6 -10 11 -13 11 -6 0 6 -4 14 -9 17 -12 8 -8 30 8 50 11 13 10 15 -8 11
-18 -3 -25 4 -23 26 1 4 -25 9 -29 5z m42 -38 c6 1 8 -2 4 -8 -8 -13 -22 -4
-35 23 -11 22 -11 22 5 2 9 -11 21 -19 26 -17z"/>
<path d="M3504 2669 c-61 -22 -133 -42 -160 -45 -27 -3 -76 -9 -109 -14 -33
-6 -71 -10 -85 -10 l-25 1 22 18 c19 16 20 20 7 25 -8 3 -13 2 -10 -3 8 -13
-21 -34 -35 -25 -7 4 -9 3 -5 -4 3 -6 -3 -16 -15 -22 -29 -16 -33 -7 -8 23 29
38 4 35 -51 -5 l-45 -33 62 -3 c34 -2 106 6 163 18 116 23 123 24 115 11 -15
-25 43 -31 272 -31 228 0 240 1 273 22 l35 22 -30 8 c-27 7 -27 7 7 3 24 -2
41 2 49 11 20 25 -35 22 -130 -7 -65 -20 -100 -24 -87 -12 4 4 17 8 29 10 12
2 42 10 67 17 45 14 45 14 18 24 -24 10 -114 28 -183 36 -18 2 -76 -12 -141
-35z m145 -55 c2 -1 -19 -9 -45 -17 -43 -13 -51 -13 -66 1 -10 8 -18 19 -18
23 0 8 119 1 129 -7z m146 -14 c3 -5 1 -10 -4 -10 -6 0 -11 5 -11 10 0 6 2 10
4 10 3 0 8 -4 11 -10z"/>
<path d="M2850 2580 l-25 -8 27 -1 c15 -1 30 4 33 9 7 11 0 11 -35 0z"/>
<path d="M3273 2573 c9 -2 23 -2 30 0 6 3 -1 5 -18 5 -16 0 -22 -2 -12 -5z"/>
<path d="M3820 2480 c-6 -65 -5 -78 6 -68 3 3 4 34 2 69 l-3 64 -5 -65z"/>
<path d="M3560 2439 c0 -5 5 -7 10 -4 6 3 10 8 10 11 0 2 -4 4 -10 4 -5 0 -10
-5 -10 -11z"/>
<path d="M3968 2443 c7 -3 16 -2 19 1 4 3 -2 6 -13 5 -11 0 -14 -3 -6 -6z"/>
<path d="M3853 2423 c9 -2 23 -2 30 0 6 3 -1 5 -18 5 -16 0 -22 -2 -12 -5z"/>
<path d="M1762 2311 c68 -60 124 -107 126 -106 2 2 -13 48 -34 103 l-37 100
-45 6 c-25 3 -65 6 -89 6 l-44 0 123 -109z"/>
<path d="M719 2393 c-13 -16 -12 -17 4 -4 9 7 17 15 17 17 0 8 -8 3 -21 -13z"/>
<path d="M3526 2335 c-11 -8 -15 -15 -9 -15 6 0 16 7 23 15 16 19 11 19 -14 0z"/>
<path d="M669 2303 c-13 -16 -12 -17 4 -4 9 7 17 15 17 17 0 8 -8 3 -21 -13z"/>
<path d="M4550 2126 c0 -2 8 -10 18 -17 15 -13 16 -12 3 4 -13 16 -21 21 -21
13z"/>
<path d="M463 2081 c-10 -16 -9 -20 13 -24 19 -3 24 -1 20 10 -3 8 -6 19 -6
24 0 15 -15 10 -27 -10z"/>
<path d="M390 1976 c0 -2 8 -10 18 -17 15 -13 16 -12 3 4 -13 16 -21 21 -21
13z"/>
<path d="M4959 1533 c-13 -16 -12 -17 4 -4 9 7 17 15 17 17 0 8 -8 3 -21 -13z"/>
<path d="M550 1178 c19 -18 90 -61 90 -55 0 3 -24 20 -52 37 -29 18 -46 25
-38 18z"/>
<path d="M650 1116 c0 -3 9 -10 20 -16 11 -6 20 -8 20 -6 0 3 -9 10 -20 16
-11 6 -20 8 -20 6z"/>
<path d="M1840 507 c8 -8 38 -26 65 -41 40 -22 45 -23 25 -6 -34 29 -83 60
-95 60 -5 0 -3 -6 5 -13z"/>
<path d="M1771 476 c7 -6 131 -80 184 -110 43 -23 46 -24 21 -4 -41 32 -233
139 -205 114z"/>
</g>
</svg>
